<svg xmlns="http://www.w3.org/2000/svg" width="24" height="24" fill="none" viewBox="0 0 24 24"><path fill="#E5241B" d="M20 4c1.1 0 2 .9 2 2v2.54c0 .69-.34 1.37-.94 1.7-.63.34-1.06 1-1.06 1.76s.43 1.42 1.06 1.76c.6.33.94 1.01.94 1.7V18c0 1.1-.9 2-2 2H4c-1.1 0-2-.9-2-2v-2.54c0-.69.34-1.37.94-1.7.63-.33 1.06-1 1.06-1.76s-.42-1.42-1.05-1.77c-.61-.32-.94-1-.94-1.69V5.99C2.01 4.89 2.9 4 4 4zm-7.54 2.99c-.16-.42-.76-.42-.93 0l-1.08 2.75-2.96.17c-.46.03-.64.6-.29.89l2.3 1.88-.75 2.88c-.12.44.37.79.75.55L12 14.5l2.5 1.6c.38.25.87-.1.75-.55l-.76-2.86 2.3-1.88c.35-.29.16-.86-.29-.89l-2.96-.17z"/></svg>