<svg xmlns="http://www.w3.org/2000/svg" width="24" height="24" fill="none" viewBox="0 0 24 24"><path fill="#9C9C9C" d="M3.5 20.09a.91.91 0 0 0 .91.91h15.18a.91.91 0 0 0 .91-.91V9.463h-17zm11.77-9.26h.98v7.59h-1.214v-5.91l-1.343.99-.721-.978zm-4.56 4.68c-.324-.332-.863-.482-1.143-.482H8.96v-1.214h.607c.184 0 .66-.099.96-.404a.84.84 0 0 0 .249-.61c0-.882-1.087-.907-1.21-.907-.658 0-.903.402-.914.42l-.308.522-1.046-.617.309-.523c.29-.493.957-1.016 1.959-1.016.624 0 1.205.18 1.636.509.508.387.788.96.788 1.612a2.05 2.05 0 0 1-.733 1.586q.17.123.32.274c.4.41.612.977.612 1.642 0 .685-.29 1.29-.813 1.704-.462.365-1.091.565-1.772.565-1.058 0-1.84-.689-2.188-1.278l-.309-.523 1.046-.618.31.522c.04.07.423.683 1.142.683.632 0 1.37-.276 1.37-1.055 0-.238-.046-.568-.265-.793m8.88-10.295h-2.123V4h-1.821v1.214H8.354V4H6.533v1.214H4.41a.903.903 0 0 0-.911.902V8.25h17V6.116a.903.903 0 0 0-.91-.902"/></svg>