<svg xmlns="http://www.w3.org/2000/svg" width="24" height="24" fill="none" viewBox="0 0 24 24"><path fill="#9C9C9C" d="M20.91 11.956c-.086-.241-.29-.384-.505-.48l-1.334-.528v-5.21a.806.806 0 0 0-.804-.805h-3.053V3.644A.645.645 0 0 0 14.57 3H9.428a.64.64 0 0 0-.643.644v1.289H5.732a.803.803 0 0 0-.804.805v5.213l-1.329.526c-.214.097-.425.242-.51.483-.087.242-.128.476-.04.765l2.05 6.048h.043c1.37 0 2.571-.701 3.427-1.765.857 1.064 2.057 1.696 3.427 1.696s2.572-.634 3.428-1.698c.857 1.064 2.056 1.767 3.427 1.767h.043l2.059-6.047c.087-.242.043-.528-.043-.77M12 8.154l-5.786 2.289v-4.06a.16.16 0 0 1 .16-.162h11.25a.16.16 0 0 1 .161.161v4.058z"/><path fill="#9C9C9C" d="M15.584 18.423c-2.099 1.46-5.076 1.46-7.175 0 0 0-1.834 2.536-3.803 2.536l.536.04c1.2 0 2.356-.472 3.427-1.03a7.43 7.43 0 0 0 6.855 0C16.494 20.528 17.65 21 18.85 21l.536-.04c-1.915 0-3.803-2.538-3.803-2.538"/></svg>