<svg xmlns="http://www.w3.org/2000/svg" width="24" height="24" fill="none" viewBox="0 0 24 24"><path fill="#9C9C9C" d="M3.833 20.09a.91.91 0 0 0 .91.91h15.18a.91.91 0 0 0 .91-.91V9.463h-17zm12.143-9.26a.15.15 0 0 1 .152-.151h1.517a.15.15 0 0 1 .152.151v1.518a.15.15 0 0 1-.152.152h-1.517a.15.15 0 0 1-.152-.152zm0 3.036a.15.15 0 0 1 .152-.152h1.517a.15.15 0 0 1 .152.152v1.518a.15.15 0 0 1-.152.152h-1.517a.15.15 0 0 1-.152-.152zM12.94 10.83a.15.15 0 0 1 .152-.151h1.518a.15.15 0 0 1 .152.151v1.518a.15.15 0 0 1-.152.152h-1.518a.15.15 0 0 1-.152-.152zm0 3.036a.15.15 0 0 1 .152-.152h1.518a.15.15 0 0 1 .152.152v1.518a.15.15 0 0 1-.152.152h-1.518a.15.15 0 0 1-.152-.152zm0 3.036a.15.15 0 0 1 .152-.152h1.518a.15.15 0 0 1 .152.152v1.518a.15.15 0 0 1-.152.151h-1.518a.15.15 0 0 1-.152-.151zm-3.036-3.036a.15.15 0 0 1 .152-.152h1.518a.15.15 0 0 1 .152.152v1.518a.15.15 0 0 1-.152.152h-1.518a.15.15 0 0 1-.152-.152zm0 3.036a.15.15 0 0 1 .152-.152h1.518a.15.15 0 0 1 .152.152v1.518a.15.15 0 0 1-.152.151h-1.518a.15.15 0 0 1-.152-.151zM6.87 13.866a.15.15 0 0 1 .152-.152h1.517a.15.15 0 0 1 .152.152v1.518a.15.15 0 0 1-.152.152H7.021a.15.15 0 0 1-.152-.152zm0 3.036a.15.15 0 0 1 .152-.152h1.517a.15.15 0 0 1 .152.152v1.518a.15.15 0 0 1-.152.151H7.021a.15.15 0 0 1-.152-.151zM19.922 5.214H17.8V4h-1.82v1.214H8.687V4H6.866v1.214H4.744a.903.903 0 0 0-.911.902V8.25h17V6.116a.903.903 0 0 0-.91-.902"/></svg>