<svg xmlns="http://www.w3.org/2000/svg" width="24" height="24" fill="none" viewBox="0 0 24 24"><path fill="#9C9C9C" d="M17.616 9.652a12 12 0 0 0-2.169-3.616C13.837 4.19 11.35 3 9.4 3c.772 2.813-.583 4.706-1.82 6.58-1.024 1.55-2.08 3.154-2.08 4.991C5.5 18.116 8.416 21 12 21s6.5-2.884 6.5-6.429c0-1.74-.297-3.394-.884-4.919m-4.303 8.885c-.42.442-.945.534-1.313.534s-.894-.092-1.313-.534c-.42-.442-.637-1.143-.637-2.037 0-1.01.358-1.78.704-2.522.264-.566.596-1.094.614-1.788.46.236.962.68 1.403 1.257.739.964 1.179 2.106 1.179 3.053 0 .894-.22 1.598-.637 2.037"/></svg>