<svg xmlns="http://www.w3.org/2000/svg" width="24" height="24" fill="none" viewBox="0 0 24 24"><path fill="#102563" d="M5.514 2.5c-.533.012-.763.177-1.082.54L2.541 5.204C2.145 5.655 2 6.36 2 7.095c0 2.455 1.847 6.44 5.405 10 3.56 3.558 7.545 5.405 10 5.405.735 0 1.44-.145 1.892-.54l2.162-1.893c.364-.318.529-.548.54-1.08.01-.393-.223-.765-.54-1.082l-2.973-2.973c-.333-.333-.62-.54-1.08-.54-.48 0-.787.245-1.082.54l-1.08 1.082c-.496.477-.866.513-1.352.27l-5.676-5.676c-.243-.486-.207-.856.27-1.351l1.082-1.081c.295-.295.54-.602.54-1.081 0-.461-.207-.748-.54-1.081L6.595 3.04c-.317-.317-.69-.55-1.081-.54"/></svg>