<svg xmlns="http://www.w3.org/2000/svg" width="24" height="24" fill="none" viewBox="0 0 24 24"><path fill="#fff" d="M12.594 21.035c5.246-.002 9.512-4.27 9.514-9.514a9.46 9.46 0 0 0-2.784-6.73A9.45 9.45 0 0 0 12.594 2C7.35 2 3.082 6.268 3.08 11.514a9.5 9.5 0 0 0 1.27 4.756L3 21.2l5.044-1.323a9.5 9.5 0 0 0 4.546 1.158z"/><path fill="#102563" d="M17.387 13.783c-.06-.099-.218-.158-.455-.277s-1.407-.694-1.625-.774c-.218-.079-.376-.119-.535.12-.158.237-.614.773-.752.931-.139.159-.278.179-.515.06-.238-.12-1.004-.37-1.912-1.18-.707-.63-1.184-1.409-1.323-1.647-.138-.238-.014-.366.105-.485.107-.107.237-.278.356-.417.12-.138.159-.237.238-.396.08-.159.04-.298-.02-.417s-.535-1.289-.733-1.765c-.193-.463-.389-.4-.535-.408a10 10 0 0 0-.455-.008.87.87 0 0 0-.634.297c-.218.238-.832.813-.832 1.984 0 1.17.852 2.3.97 2.459.12.158 1.677 2.56 4.061 3.59.568.244 1.01.39 1.356.5.57.181 1.088.155 1.497.094.457-.068 1.406-.575 1.605-1.13.198-.556.198-1.031.138-1.13"/></svg>