<svg xmlns="http://www.w3.org/2000/svg" width="18" height="10" fill="none" viewBox="0 0 18 10"><path fill="#fff" d="M9.37 9.517s.308-.033.466-.2c.144-.152.14-.44.14-.44s-.02-1.342.615-1.54c.627-.196 1.43 1.298 2.284 1.872.644.435 1.133.34 1.133.34l2.28-.032s1.192-.072.627-.992c-.047-.075-.33-.68-1.695-1.925-1.43-1.302-1.238-1.091.483-3.343 1.049-1.372 1.468-2.21 1.337-2.567-.125-.343-.896-.252-.896-.252l-2.566.016s-.19-.026-.331.057c-.138.081-.227.27-.227.27s-.406 1.061-.948 1.964C10.93 4.65 10.473 4.75 10.286 4.632c-.435-.276-.326-1.107-.326-1.698 0-1.846.285-2.616-.555-2.815C9.125.053 8.92.01 8.207.002c-.916-.009-1.69.003-2.13.214-.292.14-.517.453-.38.471.17.022.554.102.758.374.263.351.253 1.14.253 1.14s.151 2.172-.353 2.442c-.345.185-.82-.193-1.839-1.92-.521-.886-.915-1.864-.915-1.864S3.525.676 3.389.58C3.224.46 2.995.423 2.995.423L.556.438s-.366.01-.5.166c-.12.139-.01.426-.01.426s1.91 4.385 4.071 6.595C6.1 9.65 8.35 9.517 8.35 9.517z"/></svg>