<svg xmlns="http://www.w3.org/2000/svg" width="60" height="47" fill="none" viewBox="0 0 60 47"><g clip-path="url(#a)"><path fill="#EDEDED" fill-rule="evenodd" d="m5.033 29.353 2.62.115v-2.717l-2.62.115v.206l-2.89.158-.048-.058a1.17 1.17 0 0 0-.862-.387c-.334.028-.646.18-.873.425a1.324 1.324 0 0 0 0 1.8c.227.245.539.396.873.425a1.2 1.2 0 0 0 .872-.388l.048-.057 2.89.158zm-3.8-2.09a.839.839 0 0 1 0 1.674.85.85 0 0 1-.54-.274.838.838 0 0 1 .54-1.4m1.146.44 2.683-.129v1.052l-2.702-.12c.066-.13.1-.274.101-.42a.84.84 0 0 0-.082-.373zm3.146-.382 1.637-.072v1.703l-1.637-.072zm4.788 15.061 2.07-1.592-1.786-2.076-1.927 1.77.135.157-2.062 1.97h-.077a1.18 1.18 0 0 0-.915.264 1.325 1.325 0 0 0 .787 2.245c.33.042.664-.038.938-.227a1.15 1.15 0 0 0 .414-.85v-.087l2.297-1.732.135.158zm-4.258.857a.86.86 0 0 1 1.104.167.84.84 0 0 1-.01 1.11.804.804 0 0 1-1.114-.163.786.786 0 0 1 .02-1.114m1.17-.407 1.96-1.818.69.804-2.168 1.636a1 1 0 0 0-.198-.383 1 1 0 0 0-.284-.239m2.148-2.31 1.205-1.105 1.107 1.296-1.29 1zm-.115-26.8 2.22 1.378-1.55 2.243-2.091-1.56.116-.166-2.284-1.746h-.077a1.18 1.18 0 0 1-.934-.173 1.323 1.323 0 0 1-.283-1.797 1.34 1.34 0 0 1 1.79-.384 1.13 1.13 0 0 1 .482.804v.077l2.505 1.497.12-.173zm-4.335-.42a.86.86 0 0 0 1.099-.268.84.84 0 0 0-.136-1.115.81.81 0 0 0-1.093.273.79.79 0 0 0 .14 1.11zm1.2.287L8.255 15.2l.612-.851-2.303-1.435a.9.9 0 0 1-.154.402.9.9 0 0 1-.28.272zm2.369 2.08 1.315.98.963-1.406-1.392-.86z" clip-rule="evenodd"/><path fill="#055497" fill-rule="evenodd" d="M20.293 23.949s1.445.397 2.813.664l1.604.316s.072 1.234.963 1.435c.891.2 4.19.531 4.19.531s.574 0 .574.502.038 1.139.775 1.23 7.654.85 8.526-.206c.366-.44.631-.809.819-1.086.438-.66.578-.928 1.445-1.1 2.606-.526 11.637-2.55 11.637-2.55l-.226.335-6.806 3.516-1.248 4.328s-.082 1.808-1.758 1.952-11.18.564-15.25.234-5.356-1.435-6.208-4.233-1.85-5.868-1.85-5.868" clip-rule="evenodd"/><path fill="#055497" fill-rule="evenodd" d="m43.21 26.78.034-15.43-.154-.014-.327 15.396zm-11.078 2.023L31.867 0h-.26l-.265 28.803.395-.043z" clip-rule="evenodd"/><path fill="#055497" fill-rule="evenodd" d="M31.79.148c.416.163.86.24 1.306.225.54-.033 1.036-.373 2.485-.13-1.175.398-1.517.67-2.124.9a2.67 2.67 0 0 1-1.666.1z" clip-rule="evenodd"/><path fill="#024279" fill-rule="evenodd" d="m46.607 27.536-1.248 4.328s-.082 1.808-1.758 1.952-11.18.564-15.25.234-5.351-1.435-6.204-4.233c-.481-1.54-.997-3.18-1.363-4.338.742.13 1.498.258 1.84.306.8.115 1.05.828 1.595 1.77s1.628.148 2.841.866c1.214.717.188 1.468 1.364 1.841 1.175.373 9.927.191 12.456-.115.356-.043 1.565-.248 1.854-.287 2.5-.32 1.31-1.114 3.145-2.018q.353-.18.728-.306" clip-rule="evenodd"/><path fill="#055497" fill-rule="evenodd" d="m22.157 24.853-.144-15.636h.197l.544 15.635-.298-.023z" clip-rule="evenodd"/><path fill="#EDEDED" d="M19.44 39.948a16.04 16.04 0 0 1-5.011-6.526 15.95 15.95 0 0 1 0-12.283 16 16 0 0 1 4.15-5.814q.027.56 0 1.076l-.092.09a15.2 15.2 0 0 0-3.333 4.948 15.15 15.15 0 0 0 0 11.676 15.2 15.2 0 0 0 3.333 4.948q.448.446.963.861z"/><path fill="#EDEDED" d="M19.44 45.357a21 21 0 0 1-4.74-3.525 20.55 20.55 0 0 1-4.845-7.55 20.43 20.43 0 0 1 1.596-17.404 20.6 20.6 0 0 1 6.14-6.556l.13.478a20.5 20.5 0 0 0-2.693 2.248 20.1 20.1 0 0 0-4.871 7.81 20 20 0 0 0-.866 9.147 20 20 0 0 0 3.32 8.574 20.2 20.2 0 0 0 6.815 6.214v.55z"/><path fill="url(#b)" fill-rule="evenodd" d="M28.265 3.128s.876.608.635 2.76c-.24 2.152-2.345 4.06-2.345 4.06a12.07 12.07 0 0 1 6.223-.86c3.213.478 4.696 2.391 4.696 2.391a11.9 11.9 0 0 0-.751-3.826c-.805-2.32-1.676-2.98-1.676-2.98s-2.009-.33-3.974-.741a14 14 0 0 1-2.808-.809z" clip-rule="evenodd"/><path fill="url(#c)" fill-rule="evenodd" d="M24.95 10.217c.073-.024 13.651 2.267 13.651 2.267v.153l-.722-.034v.22s1.772 2.215 2.22 6.247-1.083 8.088-1.083 8.088-1.205-3.214-5.64-2.87c-4.437.345-6.537 1.966-6.537 1.966a16.75 16.75 0 0 0 1.955-8.179 12.6 12.6 0 0 0-2.6-7.323l-1.2-.368-.038-.153z" clip-rule="evenodd"/><path fill="url(#d)" fill-rule="evenodd" d="M40.778 14.947a8.4 8.4 0 0 1 1.204 4.687 12 12 0 0 1-1.247 4.898 7.9 7.9 0 0 1 3.579-.913c1.926 0 2.764.77 2.764.77a8.1 8.1 0 0 0 .328-4.171 14.8 14.8 0 0 0-1.166-4.171s-1.223-.12-2.923-.445c-.86-.15-1.706-.368-2.53-.655z" clip-rule="evenodd"/><path fill="url(#e)" fill-rule="evenodd" d="M17.692 6.864a22.2 22.2 0 0 1 5.953 7.566 27.5 27.5 0 0 1 2.312 9.007 10.7 10.7 0 0 0-3.8-1.32c-1.331-.05-2.663.07-3.964.354 0 0 2.037-2.722 1.628-7.691-.41-4.97-2.13-7.916-2.13-7.916" clip-rule="evenodd"/><path fill="#055497" fill-rule="evenodd" d="M11.835 40.814a21 21 0 0 1-3.29-5.74 22.2 22.2 0 0 1-1.32-5.673v-.225l.212-.09a36 36 0 0 1 6.353-1.78 35.8 35.8 0 0 1 14.234-.105c4.489.957 8.94 2.009 13.405 3.066 1.594.378 3.188.756 4.816 1.095q1.643.375 3.314.584c.757.086 3.213.349 3.68-.512.11-.27.126-.57.044-.851-.232-1.029-1.773-1.961-2.712-2.23-.482-.133-.342-.922.197-.803.68.15 1.32.434 1.885.837a5.1 5.1 0 0 1 1.4 1.507c.263.529.389 1.114.366 1.703a6.67 6.67 0 0 1-1.305 3.716c-4.72 6.481-13.78 3.999-20.36 2.985a93 93 0 0 0-1.667-.244c-6.835-.957-12.754-.8-18.833 2.826l-.236.144-.174-.21z" clip-rule="evenodd"/><path fill="url(#f)" fill-rule="evenodd" d="M7.524 29.382s9.98-4.08 20.413-1.87 18.12 4.376 21.545 4.754 4.398-.287 4.07-1.75-2.408-2.301-2.89-2.459a.1.1 0 0 1-.067-.115.1.1 0 0 1 .039-.061.1.1 0 0 1 .072-.01c.323.08 2.235.631 3.02 2.166.24.48.355 1.014.332 1.55a6.3 6.3 0 0 1-1.247 3.54c-4.557 6.342-13.617 3.826-20 2.87-.582-.087-1.136-.173-1.666-.245-6.859-.956-12.865-.818-19.045 2.87a21.2 21.2 0 0 1-3.232-5.649 21.7 21.7 0 0 1-1.325-5.577z" clip-rule="evenodd"/><path fill="url(#g)" fill-rule="evenodd" d="M53.62 33.62c-1.69.741-4.186.956-7.09.78-10.597-.584-20.39-5.908-31.044-3.564a35.3 35.3 0 0 0-7.196 2.435q.105.362.23.746c.102.306.208.622.328.956q.401 1.087.94 2.114a35 35 0 0 1 7.605-2.65c11.56-2.54 22.037 4.085 33.876 2.354q.347-.3.68-.646.457-.482.842-1.023a6.8 6.8 0 0 0 .829-1.507z" clip-rule="evenodd"/><path fill="url(#h)" fill-rule="evenodd" d="M9.788 37.073a35 35 0 0 1 7.605-2.635c11.56-2.54 22.037 4.084 33.876 2.353-4.85 4.185-12.735 2.076-18.477 1.19-.583-.085-1.137-.171-1.666-.243-6.86-.957-12.866-.818-19.046 2.87a21 21 0 0 1-2.292-3.535" clip-rule="evenodd"/><path fill="#EDEDED" fill-rule="evenodd" d="M13.694 16.74a1.12 1.12 0 0 1 1.036.683 1.1 1.1 0 0 1-.241 1.212 1.12 1.12 0 0 1-1.22.24 1.115 1.115 0 0 1-.688-1.03c0-.293.117-.574.326-.78.209-.208.492-.325.787-.325m0 .426a.69.69 0 0 1 .626.418.675.675 0 0 1-.488.925.69.69 0 0 1-.703-.273.7.7 0 0 1-.124-.372.675.675 0 0 1 .425-.628.7.7 0 0 1 .264-.05z" clip-rule="evenodd"/><path fill="#055497" fill-rule="evenodd" d="m30.572 2.497 1.05.196 1.132-.062-.015.794-1.18.08-.954-.157zM42.97 11.68c.364.055.733.065 1.098.029a5 5 0 0 1 2.12-.053 7 7 0 0 0-1.522.478 2.2 2.2 0 0 1-1.681.197zM21.743 9.523c.727.282 1.926-.191 2.789 0a7 7 0 0 0-1.445.478c-.704.35-.964.325-1.32.139z" clip-rule="evenodd"/><path fill="#024279" fill-rule="evenodd" d="M28.265 3.128s.876.608.635 2.76c-.24 2.152-2.345 4.06-2.345 4.06a12.07 12.07 0 0 1 6.223-.86 7.73 7.73 0 0 1 4.696 2.391 5.2 5.2 0 0 0-1.146-1.695 5.2 5.2 0 0 0-1.715-1.127c-2.582-1.1-3.603-1.019-4.725-3.616a4.2 4.2 0 0 0-.429-.736 4.3 4.3 0 0 0-1.194-1.158zm10.751 24.03s-1.205-3.214-5.64-2.87c-4.437.345-6.537 1.966-6.537 1.966a16.76 16.76 0 0 0 1.956-8.18 13.1 13.1 0 0 0-1.31-5.26c.804.956 2.056 4.524 3 6.471 2.409 4.998 7.75 2.057 8.53 7.878zm-13.28-5.634q.16.95.221 1.913a10.7 10.7 0 0 0-3.8-1.32c-1.331-.05-2.663.07-3.964.354 0 0 2.037-2.722 1.628-7.691a4.17 4.17 0 0 1 1.238 2.439c.53 2.97 1.233 3.974 3.343 4.371a2.53 2.53 0 0 0 1.334-.066m15.76-5.061a8.7 8.7 0 0 1 .481 3.171 12 12 0 0 1-1.247 4.898 7.9 7.9 0 0 1 3.584-.913c1.926 0 2.764.77 2.764.77-.674-2.708-3.56-.082-4.388-4.396a12.1 12.1 0 0 0-1.199-3.53z" clip-rule="evenodd"/><path fill="#199EDC" fill-rule="evenodd" d="m28.54 11.584 8.067 1.33c1.127.191 3.092 4.94 2.707 8.28-1.358-7.715-4.932-7.63-10.775-9.61" clip-rule="evenodd"/><path fill="#1BA5E3" fill-rule="evenodd" d="M41.963 15.784a9.3 9.3 0 0 0 2.033.526c1.295.21 1.926.287 1.926.287a20.8 20.8 0 0 1 1.282 5.778 16 16 0 0 0-.964-3.55c-.607-1.3-.91-1.54-2.206-2.051q-1.078-.406-2.09-.957zM19.46 9.112c2.307 2.08 4.787 6.419 4.758 9.752-1.387-4.376-2.403-6.213-4.759-9.752" clip-rule="evenodd"/><path fill="#199EDC" fill-rule="evenodd" d="m30.99 4.372 3.854.798c.4.087 1.286 1.675 1.609 2.956a5.35 5.35 0 0 0-1.773-2.329c-1.054-.727-2.451-1.014-3.69-1.425" clip-rule="evenodd"/><path fill="#1080BE" fill-rule="evenodd" d="m52.56 24.145-10.115 2.348c-.963.225-1.007.163-1.56.986-.328.478-.723 1.066-.877 1.262-.289.359-2.408.632-2.408.632s2.172-.072 2.519-.244a5.2 5.2 0 0 0 .925-1.21c.64-1 .814-.895 2.008-1.215l9.494-2.56z" clip-rule="evenodd"/><path fill="#EDEDED" d="M19.44 46.95a22.1 22.1 0 0 1-7.934-6.647 21.9 21.9 0 0 1-4.014-9.507 21.86 21.86 0 0 1 .787-10.278 22 22 0 0 1 5.415-8.795 22.6 22.6 0 0 1 3.458-2.803c.053.149.111.302.164.479a21.6 21.6 0 0 0-7.333 8.29 21.4 21.4 0 0 0 1.223 21.297 21.6 21.6 0 0 0 8.234 7.41z"/></g><defs><linearGradient id="b" x1="32.316" x2="34.814" y1="8.203" y2="4.146" gradientUnits="userSpaceOnUse"><stop stop-color="#055497"/><stop offset="1" stop-color="#1BA5E3"/></linearGradient><linearGradient id="c" x1="31.631" x2="37.278" y1="19.161" y2="11.365" gradientUnits="userSpaceOnUse"><stop stop-color="#055497"/><stop offset="1" stop-color="#1BA5E3"/></linearGradient><linearGradient id="d" x1="43.389" x2="46.781" y1="20.309" y2="16.239" gradientUnits="userSpaceOnUse"><stop stop-color="#055497"/><stop offset="1" stop-color="#1BA5E3"/></linearGradient><linearGradient id="e" x1="21.117" x2="23.699" y1="16.071" y2="12.658" gradientUnits="userSpaceOnUse"><stop stop-color="#055497"/><stop offset="1" stop-color="#1BA5E3"/></linearGradient><linearGradient id="f" x1="13.1" x2="48.47" y1="33.582" y2="33.582" gradientUnits="userSpaceOnUse"><stop stop-color="#D6D6D6"/><stop offset="1" stop-color="#F9F9F9"/></linearGradient><linearGradient id="g" x1="19.973" x2="41.987" y1="34.752" y2="32.819" gradientUnits="userSpaceOnUse"><stop stop-color="#106BA2"/><stop offset="1" stop-color="#1BA5E3"/></linearGradient><linearGradient id="h" x1="21.74" x2="39.347" y1="37.331" y2="35.902" gradientUnits="userSpaceOnUse"><stop stop-color="#AD1A23"/><stop offset="1" stop-color="#DC2730"/></linearGradient><clipPath id="a"><path fill="#fff" d="M0 0h60v47H0z"/></clipPath></defs></svg>