<svg xmlns="http://www.w3.org/2000/svg" width="227" height="50" fill="none" viewBox="0 0 227 50"><g clip-path="url(#a)"><path fill="#055497" fill-rule="evenodd" d="m5.317 31.26 2.768.123v-2.894l-2.768.123v.219l-3.053.168-.051-.061a1.24 1.24 0 0 0-.91-.413 1.414 1.414 0 0 0-1.295 1.411 1.417 1.417 0 0 0 1.294 1.41 1.25 1.25 0 0 0 .921-.412l.051-.06 3.053.167zm-4.015-2.226a.895.895 0 0 1 .571 1.491.9.9 0 0 1-.57.292.895.895 0 0 1 0-1.783m1.211.469 2.834-.137v1.12l-2.854-.127c.07-.14.106-.293.107-.449a.9.9 0 0 0-.087-.397zm3.323-.407 1.73-.077v1.814l-1.73-.077zm5.057 16.04 2.188-1.697-1.888-2.21-2.035 1.884.142.169-2.177 2.098h-.082a1.24 1.24 0 0 0-.967.28 1.417 1.417 0 0 0 1.822 2.15 1.22 1.22 0 0 0 .438-.907v-.092l2.427-1.843.142.168zm-4.498.911a.9.9 0 0 1 1.381.772.9.9 0 0 1-.226.588.844.844 0 0 1-1.175-.173.84.84 0 0 1 .02-1.187m1.236-.433 2.071-1.935.728.855-2.29 1.743a1.1 1.1 0 0 0-.208-.408 1 1 0 0 0-.3-.255m2.27-2.46 1.272-1.177 1.17 1.38-1.364 1.066zm-.123-28.54 2.345 1.467-1.639 2.39-2.208-1.662.122-.178-2.411-1.859h-.082a1.23 1.23 0 0 1-.987-.183 1.411 1.411 0 0 1 1.593-2.323 1.2 1.2 0 0 1 .508.856v.081l2.646 1.595.127-.184zm-4.58-.448a.9.9 0 0 0 1.017-1.472.85.85 0 0 0-1.155.29.846.846 0 0 0 .148 1.182zm1.267.306 2.254 1.716.646-.907-2.432-1.528a.96.96 0 0 1-.163.428 1 1 0 0 1-.295.29zm2.503 2.215 1.39 1.044 1.017-1.497-1.47-.917zm12.467 8.818s1.526.422 2.971.707l1.694.337s.077 1.314 1.018 1.528 4.427.565 4.427.565.605 0 .605.535.041 1.212.82 1.31c.778.096 8.085.906 9.006-.22.386-.468.666-.86.865-1.156.463-.703.61-.988 1.526-1.172 2.753-.56 12.293-2.715 12.293-2.715l-.239.357-7.19 3.744-1.317 4.61s-.087 1.925-1.857 2.078-11.81.6-16.11.25c-4.3-.352-5.658-1.529-6.559-4.508s-1.953-6.25-1.953-6.25" clip-rule="evenodd"/><path fill="#055497" fill-rule="evenodd" d="m45.646 28.52.036-16.433-.163-.015-.346 16.397zm-11.703 2.154L33.663 0h-.274l-.28 30.674.417-.046z" clip-rule="evenodd"/><path fill="#055497" fill-rule="evenodd" d="M33.582.158c.438.173.907.255 1.379.24C35.53.362 36.054 0 37.586.26c-1.241.423-1.603.713-2.244.958a2.8 2.8 0 0 1-1.76.107z" clip-rule="evenodd"/><path fill="#024279" fill-rule="evenodd" d="m49.233 29.325-1.317 4.61s-.087 1.925-1.858 2.078c-1.77.153-11.81.601-16.109.25-4.3-.352-5.653-1.529-6.554-4.508a1650 1650 0 0 0-1.44-4.62c.784.137 1.583.275 1.944.326.845.122 1.11.88 1.685 1.884.574 1.004 1.72.158 3.002.922s.198 1.564 1.44 1.961c1.241.398 10.486.204 13.158-.122.376-.046 1.653-.265 1.959-.306 2.64-.34 1.383-1.186 3.322-2.15q.373-.191.768-.325" clip-rule="evenodd"/><path fill="#055497" fill-rule="evenodd" d="m23.406 26.467-.152-16.651h.208l.575 16.651-.315-.025z" clip-rule="evenodd"/><path fill="#055497" d="M20.536 42.543a17.1 17.1 0 0 1-6.593-13.49 17.1 17.1 0 0 1 5.682-12.733q.03.597 0 1.146l-.096.097a16.24 16.24 0 0 0-4.757 11.487 16.25 16.25 0 0 0 4.757 11.486q.473.474 1.017.917z"/><path fill="#055497" d="M20.536 48.304a22.1 22.1 0 0 1-5.007-3.754 21.9 21.9 0 0 1-6.34-17.496 21.9 21.9 0 0 1 9.393-16.062l.137.51a21.42 21.42 0 0 0-8.905 20.452c.45 3.274 1.65 6.4 3.508 9.131a21.4 21.4 0 0 0 7.198 6.618v.586z"/><path fill="url(#b)" fill-rule="evenodd" d="M29.857 3.331s.926.647.672 2.94c-.255 2.292-2.478 4.324-2.478 4.324a12.65 12.65 0 0 1 6.574-.917c3.394.51 4.96 2.547 4.96 2.547a12.8 12.8 0 0 0-.793-4.075c-.85-2.47-1.77-3.173-1.77-3.173s-2.122-.352-4.198-.79a15 15 0 0 1-2.967-.86z" clip-rule="evenodd"/><path fill="url(#c)" fill-rule="evenodd" d="M26.357 10.88c.076-.025 14.42 2.415 14.42 2.415v.163l-.763-.036v.234s1.872 2.359 2.345 6.653-1.145 8.613-1.145 8.613-1.272-3.423-5.958-3.056-6.904 2.094-6.904 2.094a17.96 17.96 0 0 0 2.065-8.71 13.5 13.5 0 0 0-2.747-7.8l-1.267-.391-.041-.163z" clip-rule="evenodd"/><path fill="url(#d)" fill-rule="evenodd" d="M43.077 15.918a9 9 0 0 1 1.272 4.992 12.9 12.9 0 0 1-1.318 5.216 8.3 8.3 0 0 1 3.78-.973c2.036 0 2.92.82 2.92.82a8.7 8.7 0 0 0 .347-4.442 15.9 15.9 0 0 0-1.231-4.441s-1.293-.128-3.089-.474a17 17 0 0 1-2.671-.698z" clip-rule="evenodd"/><path fill="url(#e)" fill-rule="evenodd" d="M18.689 7.31a23.6 23.6 0 0 1 6.289 8.058 29.4 29.4 0 0 1 2.442 9.591 11.3 11.3 0 0 0-4.014-1.406 16.6 16.6 0 0 0-4.188.377s2.152-2.898 1.72-8.19c-.432-5.293-2.249-8.43-2.249-8.43" clip-rule="evenodd"/><path fill="#055497" fill-rule="evenodd" d="M12.501 43.465a22.4 22.4 0 0 1-3.475-6.112 23.8 23.8 0 0 1-1.394-6.041v-.24l.224-.097a38 38 0 0 1 6.71-1.894 37.55 37.55 0 0 1 15.037-.113c4.742 1.02 9.443 2.14 14.16 3.266 1.684.402 3.368.804 5.088 1.166q1.735.399 3.5.622c.8.091 3.395.371 3.888-.546.117-.288.133-.607.046-.906-.244-1.095-1.872-2.089-2.864-2.374-.51-.143-.362-.983.208-.856a5.42 5.42 0 0 1 3.47 2.496c.278.563.41 1.186.387 1.814a7.14 7.14 0 0 1-1.379 3.958c-4.986 6.902-14.557 4.258-21.508 3.178a99 99 0 0 0-1.76-.26c-7.22-1.019-13.474-.85-19.895 3.01l-.25.153-.183-.224z" clip-rule="evenodd"/><path fill="url(#f)" fill-rule="evenodd" d="M7.948 31.29S18.49 26.947 29.51 29.3c11.022 2.352 19.142 4.66 22.76 5.062s4.645-.305 4.3-1.864c-.346-1.559-2.545-2.45-3.053-2.618a.11.11 0 0 1-.072-.122.1.1 0 0 1 .041-.066.1.1 0 0 1 .076-.01c.341.086 2.361.672 3.19 2.307a3.4 3.4 0 0 1 .352 1.65 6.75 6.75 0 0 1-1.318 3.77c-4.813 6.754-14.384 4.074-21.126 3.056-.616-.092-1.201-.184-1.76-.26-7.246-1.019-13.591-.871-20.12 3.056a22.6 22.6 0 0 1-3.414-6.016 23.3 23.3 0 0 1-1.399-5.939z" clip-rule="evenodd"/><path fill="url(#g)" fill-rule="evenodd" d="M56.642 35.804c-1.786.79-4.422 1.019-7.49.83-11.194-.621-21.538-6.29-32.793-3.795a37 37 0 0 0-7.602 2.593q.111.387.244.795c.107.326.219.662.346 1.018q.423 1.159.992 2.252a36.7 36.7 0 0 1 8.034-2.822c12.212-2.705 23.279 4.35 35.786 2.506q.366-.32.717-.688.484-.514.89-1.09a7.2 7.2 0 0 0 .876-1.604z" clip-rule="evenodd"/><path fill="url(#h)" fill-rule="evenodd" d="M10.339 39.482a36.7 36.7 0 0 1 8.034-2.807c12.212-2.704 23.278 4.35 35.785 2.506-5.123 4.457-13.453 2.211-19.518 1.269-.616-.092-1.2-.184-1.76-.26-7.246-1.019-13.591-.871-20.12 3.056a22.3 22.3 0 0 1-2.421-3.764" clip-rule="evenodd"/><path fill="#055497" fill-rule="evenodd" d="M14.465 17.828a1.18 1.18 0 0 1 1.163 1.411 1.182 1.182 0 0 1-1.612.861 1.18 1.18 0 0 1-.726-1.095 1.177 1.177 0 0 1 1.175-1.177m0 .453a.72.72 0 0 1 .704.86.723.723 0 0 1-1.431-.116.72.72 0 0 1 .727-.723zM32.294 2.659l1.11.209 1.195-.067-.015.846-1.247.087-1.007-.168zm13.098 9.781a4.7 4.7 0 0 0 1.16.03 5.3 5.3 0 0 1 2.239-.056 7.2 7.2 0 0 0-1.608.509 2.3 2.3 0 0 1-1.776.209zm-22.424-2.298c.769.3 2.035-.204 2.946 0a7.5 7.5 0 0 0-1.526.509c-.743.372-1.018.346-1.394.148z" clip-rule="evenodd"/><path fill="#024279" fill-rule="evenodd" d="M29.857 3.331s.926.647.672 2.94c-.255 2.292-2.478 4.324-2.478 4.324a12.65 12.65 0 0 1 6.574-.917 8.14 8.14 0 0 1 4.96 2.547 5.54 5.54 0 0 0-3.022-3.005c-2.727-1.172-3.806-1.085-4.991-3.851a4.5 4.5 0 0 0-.453-.785 4.6 4.6 0 0 0-1.262-1.232zm11.357 25.591s-1.272-3.423-5.958-3.056-6.905 2.093-6.905 2.093a17.96 17.96 0 0 0 2.066-8.71 14 14 0 0 0-1.384-5.603c.85 1.019 2.173 4.819 3.17 6.892 2.544 5.323 8.187 2.19 9.011 8.39zm-14.028-6q.168 1.013.234 2.037a11.3 11.3 0 0 0-4.014-1.406 16.6 16.6 0 0 0-4.188.377s2.152-2.898 1.72-8.19a4.45 4.45 0 0 1 1.308 2.597c.56 3.164 1.302 4.233 3.53 4.656a2.67 2.67 0 0 0 1.41-.071m16.649-5.389a9.3 9.3 0 0 1 .508 3.377 12.9 12.9 0 0 1-1.318 5.216 8.3 8.3 0 0 1 3.786-.973c2.035 0 2.92.82 2.92.82-.712-2.883-3.76-.087-4.635-4.681a13 13 0 0 0-1.267-3.76z" clip-rule="evenodd"/><path fill="#199EDC" fill-rule="evenodd" d="m30.148 12.337 8.523 1.416c1.19.204 3.266 5.262 2.86 8.817-1.436-8.216-5.211-8.124-11.383-10.233" clip-rule="evenodd"/><path fill="#1BA5E3" fill-rule="evenodd" d="M44.329 16.81a9.8 9.8 0 0 0 2.147.56 59 59 0 0 0 2.035.306 22.3 22.3 0 0 1 1.354 6.153 17.3 17.3 0 0 0-1.018-3.78c-.641-1.385-.962-1.64-2.33-2.185a18 18 0 0 1-2.209-1.019zM20.556 9.704c2.438 2.215 5.058 6.836 5.027 10.386-1.465-4.66-2.539-6.617-5.027-10.386" clip-rule="evenodd"/><path fill="#199EDC" fill-rule="evenodd" d="m32.737 4.656 4.071.85c.422.092 1.359 1.784 1.7 3.149a5.7 5.7 0 0 0-1.873-2.481c-1.114-.774-2.59-1.08-3.898-1.518" clip-rule="evenodd"/><path fill="#1080BE" fill-rule="evenodd" d="m55.522 25.713-10.685 2.501c-1.018.24-1.064.173-1.649 1.05-.346.509-.763 1.135-.926 1.344-.305.382-2.544.672-2.544.672s2.295-.076 2.661-.26a5.5 5.5 0 0 0 .977-1.288c.677-1.065.86-.953 2.122-1.294l10.029-2.725z" clip-rule="evenodd"/><path fill="#055497" d="M20.536 50a23.4 23.4 0 0 1-8.382-7.079 23.45 23.45 0 0 1-3.409-21.07 23.44 23.44 0 0 1 5.72-9.366A24 24 0 0 1 18.12 9.5c.056.158.117.32.173.51a22.9 22.9 0 0 0-7.747 8.828 22.94 22.94 0 0 0 1.292 22.68 22.9 22.9 0 0 0 8.699 7.891zM65.18 28.55c0 .177.042.352.122.51.078.15.194.279.336.372a.84.84 0 0 0 .483.142h8.6a7 7 0 0 0 1.628-.188 5.7 5.7 0 0 0 1.45-.57 4.5 4.5 0 0 0 1.17-.953c.338-.39.6-.839.774-1.325a5 5 0 0 0 .285-1.696 5 5 0 0 0-.199-1.431 3.8 3.8 0 0 0-.63-1.253 3.7 3.7 0 0 0-1.1-.968q.457-.398.794-.902c.194-.285.34-.6.432-.932a4 4 0 0 0 .128-1.06 4.9 4.9 0 0 0-.296-1.726 3.8 3.8 0 0 0-.798-1.289 4.4 4.4 0 0 0-1.17-.856 5.8 5.8 0 0 0-1.415-.484 7.2 7.2 0 0 0-1.527-.152h-8.1a.9.9 0 0 0-.483.142 1 1 0 0 0-.336.377 1.1 1.1 0 0 0-.122.51zm9.108-11.787a1.3 1.3 0 0 1 1.018.408c.272.331.408.754.381 1.182.027.426-.11.847-.381 1.176a1.32 1.32 0 0 1-1.018.413h-5.343v-3.179zm.366 6.062c.313-.009.62.074.886.24.24.161.427.392.534.662a2.85 2.85 0 0 1 0 1.981 1.4 1.4 0 0 1-.534.662 1.53 1.53 0 0 1-.886.24h-5.709v-3.785zm15.362-6.377a4.53 4.53 0 0 1 2.473.606 3.5 3.5 0 0 1 1.384 1.793 8.3 8.3 0 0 1 .427 2.867 8.3 8.3 0 0 1-.427 2.863 3.46 3.46 0 0 1-1.38 1.778 5.32 5.32 0 0 1-4.95 0 3.46 3.46 0 0 1-1.38-1.778 8.3 8.3 0 0 1-.426-2.863 8.3 8.3 0 0 1 .427-2.867 3.5 3.5 0 0 1 1.379-1.778c.75-.44 1.61-.655 2.478-.621zm-8.045 5.251a11.6 11.6 0 0 0 .54 3.77 6.2 6.2 0 0 0 1.567 2.546 6.3 6.3 0 0 0 2.544 1.452c2.236.618 4.597.618 6.833 0a5.97 5.97 0 0 0 4.076-3.998c.373-1.216.545-2.484.509-3.754a11.7 11.7 0 0 0-.509-3.76 5.99 5.99 0 0 0-4.096-4.003 12.8 12.8 0 0 0-6.834 0 5.99 5.99 0 0 0-4.07 4.003 11.7 11.7 0 0 0-.54 3.76zm32.682 6.826V14.823a1.15 1.15 0 0 0-.112-.51 1.05 1.05 0 0 0-.3-.377.7.7 0 0 0-.428-.147h-4.996a12 12 0 0 0-2.143.173 7 7 0 0 0-1.948.657 4.7 4.7 0 0 0-1.562 1.31 5.7 5.7 0 0 0-.982 2.138l-2.544 10.59a.83.83 0 0 0 0 .464c.043.133.127.25.239.336.114.086.254.13.397.127h2.035c.179 0 .354-.047.509-.137.164-.092.308-.217.422-.367.123-.157.21-.34.254-.535l2.341-9.433c.088-.423.261-.824.509-1.177a2.54 2.54 0 0 1 2.101-1.019h2.437v11.609c-.001.186.043.37.128.535.081.148.198.274.341.366.14.092.305.14.473.138h1.903a.83.83 0 0 0 .468-.138 1 1 0 0 0 .331-.366c.083-.166.125-.35.122-.535zm3.562.025a1.02 1.02 0 0 0 .468.871c.14.092.305.14.473.138h1.882a.86.86 0 0 0 .474-.138c.141-.09.259-.214.341-.361.086-.156.13-.332.127-.51V16.896h6.838a.87.87 0 0 0 .484-.138 1 1 0 0 0 .336-.366c.079-.159.122-.333.127-.51v-1.018a1.2 1.2 0 0 0-.127-.51 1 1 0 0 0-.336-.367.87.87 0 0 0-.484-.137h-9.667a.9.9 0 0 0-.484.137 1 1 0 0 0-.33.367 1.1 1.1 0 0 0-.128.51zm11.077 0a1 1 0 0 0 0 .51.67.67 0 0 0 .249.361.72.72 0 0 0 .448.138h1.964c.178 0 .354-.048.508-.138a1.4 1.4 0 0 0 .423-.366c.117-.152.204-.325.254-.51l.677-2.77h7.123v2.77c.005.177.049.351.128.51a1 1 0 0 0 .335.366c.143.092.309.14.479.138h1.887a.83.83 0 0 0 .469-.138c.141-.09.258-.214.34-.361.086-.157.131-.332.133-.51V14.797a1.2 1.2 0 0 0-.112-.51.95.95 0 0 0-.311-.366.73.73 0 0 0-.437-.143h-5.378a12 12 0 0 0-2.142.174 6.9 6.9 0 0 0-1.949.657c-.615.32-1.154.77-1.578 1.32a5.7 5.7 0 0 0-.982 2.144l-2.544 10.498zm6.141-9.459c.101-.424.288-.822.55-1.171.237-.327.549-.59.91-.77a2.6 2.6 0 0 1 1.186-.274h2.865v5.791h-6.366l.88-3.565zm12.436 2.226a.57.57 0 0 0-.438.194.7.7 0 0 0-.178.484v1.304a.7.7 0 0 0 .178.484.57.57 0 0 0 .438.193h7.535a.57.57 0 0 0 .433-.193.7.7 0 0 0 .178-.484v-1.284a.7.7 0 0 0-.178-.484.57.57 0 0 0-.433-.193zm20.805-3.132a4.9 4.9 0 0 1 1.99.366 2.8 2.8 0 0 1 1.318 1.146c.353.607.529 1.3.508 2.002a3.7 3.7 0 0 1-.478 1.977 2.8 2.8 0 0 1-1.318 1.146 4.9 4.9 0 0 1-1.989.372zm-2.707-5.094a.94.94 0 0 0-.855.51 1.2 1.2 0 0 0-.132.509v1.12a12 12 0 0 0-2.396.214 7.7 7.7 0 0 0-2.036.688 5.4 5.4 0 0 0-1.597 1.222 5.4 5.4 0 0 0-1.018 1.834 8.66 8.66 0 0 0 0 5.017c.213.674.56 1.297 1.018 1.834a5.4 5.4 0 0 0 1.597 1.228 7.8 7.8 0 0 0 2.036.687c.79.146 1.592.218 2.396.214v1.08c.005.178.05.352.132.51a.95.95 0 0 0 .855.52h1.847a.93.93 0 0 0 .484-.143 1 1 0 0 0 .346-.378c.085-.156.13-.33.132-.509v-1.08a13 13 0 0 0 2.397-.214 7.8 7.8 0 0 0 2.035-.687 5.4 5.4 0 0 0 1.597-1.228 5.3 5.3 0 0 0 1.018-1.834 8.66 8.66 0 0 0 0-5.017 5.3 5.3 0 0 0-1.018-1.834 5.4 5.4 0 0 0-1.597-1.222 7.7 7.7 0 0 0-2.035-.688 12 12 0 0 0-2.397-.214v-1.08a1.1 1.1 0 0 0-.132-.509.94.94 0 0 0-.83-.51zm-.86 12.082a4.9 4.9 0 0 1-1.989-.372 2.8 2.8 0 0 1-1.313-1.125 3.73 3.73 0 0 1-.478-1.977 3.76 3.76 0 0 1 .478-1.981 2.8 2.8 0 0 1 1.318-1.146 4.9 4.9 0 0 1 1.989-.367zm27.533 3.352V14.823c0-.177-.04-.351-.117-.51a1 1 0 0 0-.301-.377.7.7 0 0 0-.422-.147h-4.997a12 12 0 0 0-2.147.173 7 7 0 0 0-1.949.657 4.7 4.7 0 0 0-1.567 1.31 5.6 5.6 0 0 0-.982 2.138l-2.544 10.59a.83.83 0 0 0 0 .464c.044.133.128.25.239.336.115.085.255.13.397.127h2.036c.178 0 .354-.047.508-.137.166-.092.312-.217.428-.367.131-.163.225-.352.274-.555l2.295-9.434a3.2 3.2 0 0 1 .545-1.176c.241-.323.552-.586.91-.77.37-.178.776-.27 1.186-.27h2.437v11.65c.001.186.046.37.133.535.078.15.196.277.34.366a.84.84 0 0 0 .469.138h1.908a.8.8 0 0 0 .463-.138c.138-.093.252-.219.33-.366.085-.166.129-.35.128-.535m10.812-12.098a4.53 4.53 0 0 1 2.473.606 3.5 3.5 0 0 1 1.379 1.814c.312.923.457 1.894.427 2.867a8.1 8.1 0 0 1-.427 2.863 3.47 3.47 0 0 1-1.379 1.778 5.32 5.32 0 0 1-4.951 0 3.47 3.47 0 0 1-1.379-1.778 8.2 8.2 0 0 1-.422-2.863 8.2 8.2 0 0 1 .422-2.867 3.48 3.48 0 0 1 1.389-1.793 4.55 4.55 0 0 1 2.468-.606zm-8.065 5.272a11.6 11.6 0 0 0 .555 3.77 6.2 6.2 0 0 0 1.567 2.546 6.3 6.3 0 0 0 2.544 1.452c2.236.618 4.598.618 6.834 0a5.98 5.98 0 0 0 4.075-3.998c.382-1.214.563-2.482.535-3.754a11.7 11.7 0 0 0-.535-3.76 6 6 0 0 0-4.096-4.003 12.8 12.8 0 0 0-6.833 0 6 6 0 0 0-4.071 4.004 11.7 11.7 0 0 0-.575 3.743m17.962-7.91a.9.9 0 0 0-.484.137 1 1 0 0 0-.336.367 1.2 1.2 0 0 0-.127.51v1.018c.005.177.048.351.127.51.08.148.196.274.336.366.145.092.313.14.484.138h4.462V28.57c.002.178.047.353.132.51a.94.94 0 0 0 .341.36.83.83 0 0 0 .468.138h1.883a.83.83 0 0 0 .473-.137c.142-.09.259-.215.341-.362a1.1 1.1 0 0 0 .132-.51V16.897h4.463a.87.87 0 0 0 .509-.138c.138-.093.252-.219.33-.366.081-.158.125-.332.127-.51v-1.018a1.1 1.1 0 0 0-.127-.51 1 1 0 0 0-.33-.367.87.87 0 0 0-.509-.137z"/><path fill="#2A2A2A" fill-rule="evenodd" d="M119.696 40.337a.3.3 0 0 0 .142-.04.27.27 0 0 0 .107-.107.25.25 0 0 0 .041-.148v-2.068h.946a1 1 0 0 1 .509.117c.145.079.275.184.381.31q.18.21.321.449l.707 1.14a.74.74 0 0 0 .356.301q.09.042.189.046h.916a.14.14 0 0 0 .101-.03q.015-.014.021-.033a.1.1 0 0 0 .005-.039.4.4 0 0 0-.056-.152l-1.018-1.63a4 4 0 0 0-.198-.28 2.3 2.3 0 0 0-.514-.514.9.9 0 0 0-.27-.123l-.346-.077.346-.086a1.3 1.3 0 0 0 .748-.5q.129-.172.229-.361l.87-1.61a.34.34 0 0 0 .056-.219c0-.046-.066-.05-.102-.05h-.926a.5.5 0 0 0-.264.08.8.8 0 0 0-.239.27l-.637 1.132a2.7 2.7 0 0 1-.34.509c-.112.12-.247.218-.397.285a1.1 1.1 0 0 1-.463.092h-.947v-2.038a.3.3 0 0 0-.04-.157.29.29 0 0 0-.25-.153h-.753a.29.29 0 0 0-.254.153.3.3 0 0 0-.041.157v5.094a.32.32 0 0 0 .148.27q.066.04.142.04zm6.935-5.7a.3.3 0 0 0-.143.041.27.27 0 0 0-.102.107.34.34 0 0 0-.04.153v5.094a.32.32 0 0 0 .147.26q.069.039.148.04h.753a.3.3 0 0 0 .148-.04.32.32 0 0 0 .147-.26v-1.02h2.005c.434.013.866-.067 1.267-.233.334-.145.611-.395.788-.714a2.92 2.92 0 0 0 0-2.5 1.65 1.65 0 0 0-.788-.714 3.1 3.1 0 0 0-1.267-.234zm2.61.983q.284-.006.565.041c.163.03.32.088.463.173a.9.9 0 0 1 .32.382c.077.197.113.406.107.617.006.21-.031.42-.107.616a.9.9 0 0 1-.32.377c-.141.09-.298.149-.463.173q-.281.045-.565.046h-1.526V35.62zm5.882 3.653a.4.4 0 0 0-.153.04.3.3 0 0 0-.101.107.3.3 0 0 0-.041.153v.464a.3.3 0 0 0 .041.148q.038.067.101.111.071.04.153.041h.967a2.9 2.9 0 0 0 .88-.122c.23-.07.445-.18.636-.326a2 2 0 0 0 .453-.51q.19-.313.305-.661l1.303-3.826a.3.3 0 0 0 0-.137.16.16 0 0 0-.061-.087.2.2 0 0 0-.122-.036h-.815a.43.43 0 0 0-.315.143.5.5 0 0 0-.102.178l-.743 2.175h-.554a1.5 1.5 0 0 1-.636-.122 1.3 1.3 0 0 1-.458-.362 2.1 2.1 0 0 1-.311-.55l-.463-1.146a.47.47 0 0 0-.173-.224.5.5 0 0 0-.28-.092h-.844a.2.2 0 0 0-.117.036.17.17 0 0 0-.051.081.3.3 0 0 0 .025.153l.631 1.477q.164.41.412.775.207.313.509.54c.198.143.421.25.657.315q.44.116.895.107h.453l-.031.107a1.8 1.8 0 0 1-.442.836 1 1 0 0 1-.728.29h-.086a1.3 1.3 0 0 1-.245 0l-.218-.036h-.209zm11.927 1.064a.3.3 0 0 0 .147-.04.32.32 0 0 0 .148-.26v-5.094a.3.3 0 0 0-.041-.153.3.3 0 0 0-.102-.107.24.24 0 0 0-.152-.046h-1.181a.4.4 0 0 0-.168.046.7.7 0 0 0-.173.128.7.7 0 0 0-.137.168l-2.412 4.375v-4.426a.3.3 0 0 0-.041-.148.26.26 0 0 0-.106-.107.3.3 0 0 0-.148-.04h-.723a.3.3 0 0 0-.152.04.3.3 0 0 0-.102.107.27.27 0 0 0-.041.153v5.094a.35.35 0 0 0 .041.152.4.4 0 0 0 .102.107q.07.04.152.041h1.328a.5.5 0 0 0 .184-.046.7.7 0 0 0 .188-.127 1 1 0 0 0 .137-.168l2.249-4.075v4.126a.32.32 0 0 0 .148.26q.069.039.147.04zm5.765-4.742q.276-.008.544.061c.14.04.265.121.356.234a.67.67 0 0 1 .122.418.7.7 0 0 1-.122.418.7.7 0 0 1-.356.229q-.268.071-.544.066h-.901a.25.25 0 0 0-.137.041.35.35 0 0 0-.102.112.4.4 0 0 0-.041.148v.33a.4.4 0 0 0 .041.159q.04.066.107.107a.4.4 0 0 0 .147.04h1.018q.26-.013.509.062a.6.6 0 0 1 .341.224.8.8 0 0 1 0 .85.6.6 0 0 1-.341.23 1.8 1.8 0 0 1-.509.06h-1.257q-.196 0-.381-.06a1 1 0 0 1-.326-.179.76.76 0 0 1-.229-.29 1 1 0 0 0-.153-.244.43.43 0 0 0-.346-.158h-.473a.4.4 0 0 0-.086 0 .3.3 0 0 0-.112.056.3.3 0 0 0-.092.107.5.5 0 0 0-.036.188c.002.177.044.351.123.51.081.162.194.307.33.427q.22.196.484.326c.36.18.757.272 1.16.27h1.526c.393.012.786-.043 1.16-.163.295-.095.552-.283.733-.535a1.77 1.77 0 0 0 .26-1.018 1.6 1.6 0 0 0-.056-.444 1.2 1.2 0 0 0-.189-.361 1.4 1.4 0 0 0-.346-.306l-.101-.066.091-.071q.172-.136.295-.316a1.45 1.45 0 0 0 .224-.79 1.9 1.9 0 0 0-.117-.692 1.3 1.3 0 0 0-.315-.48 1.6 1.6 0 0 0-.484-.315 3 3 0 0 0-.57-.143 5 5 0 0 0-.707-.05h-1.231q-.3 0-.59.07a2.8 2.8 0 0 0-.57.2 2.2 2.2 0 0 0-.484.315q-.204.18-.336.418a1.16 1.16 0 0 0-.122.51.5.5 0 0 0 .041.188.35.35 0 0 0 .198.163h.565a.42.42 0 0 0 .26-.077.64.64 0 0 0 .203-.26q.095-.188.255-.325a.9.9 0 0 1 .341-.174q.184-.052.376-.05zm5.948 1.019v-1.676a.3.3 0 0 0-.041-.158.27.27 0 0 0-.107-.107.3.3 0 0 0-.142-.04h-.738a.3.3 0 0 0-.153.04.26.26 0 0 0-.101.107.27.27 0 0 0-.041.153v5.094a.35.35 0 0 0 .035.157.4.4 0 0 0 .102.113q.064.038.138.04h2.798c.278.003.554-.038.819-.122.243-.076.471-.195.672-.351.187-.158.338-.354.443-.576a2.05 2.05 0 0 0 0-1.605 1.7 1.7 0 0 0-.443-.575 2.1 2.1 0 0 0-.667-.352 2.7 2.7 0 0 0-.824-.122zm1.735.988a.72.72 0 0 1 .58.24 1.19 1.19 0 0 1 0 1.247.72.72 0 0 1-.58.24h-1.745v-1.707zm3.053 2.42a.25.25 0 0 0 .04.147.27.27 0 0 0 .107.107q.066.04.143.04h.763a.3.3 0 0 0 .153-.04.3.3 0 0 0 .106-.112.25.25 0 0 0 .041-.148v-5.093a.27.27 0 0 0-.041-.153.26.26 0 0 0-.106-.107.3.3 0 0 0-.153-.04h-.763q-.077 0-.143.04a.27.27 0 0 0-.107.107.27.27 0 0 0-.04.153zm13.117.295a.3.3 0 0 0 .153-.04.4.4 0 0 0 .112-.113.4.4 0 0 0 .04-.153v-5.093a.4.4 0 0 0-.04-.153.3.3 0 0 0-.255-.148h-5.169q-.077 0-.143.04a.27.27 0 0 0-.102.108.27.27 0 0 0-.04.153v5.093a.3.3 0 0 0 .04.158.4.4 0 0 0 .102.107q.069.04.148.04h.753a.29.29 0 0 0 .254-.152.27.27 0 0 0 .041-.153v-4.39h3.099v4.41a.31.31 0 0 0 .147.266q.069.039.148.04zm2.473-2.848c-.01.464.061.926.209 1.366.12.352.328.668.605.916.283.242.617.416.977.51a5.5 5.5 0 0 0 2.692 0c.361-.095.696-.269.982-.51.273-.25.48-.565.6-.916a4.5 4.5 0 0 0 0-2.736 2.2 2.2 0 0 0-.6-.911 2.46 2.46 0 0 0-.982-.51 5.5 5.5 0 0 0-2.692 0 2.4 2.4 0 0 0-.977.51c-.277.246-.485.56-.605.911-.14.45-.201.92-.178 1.39zm3.139-2.037c.355-.01.705.072 1.018.24.268.159.475.405.585.697.128.353.188.726.178 1.1a2.9 2.9 0 0 1-.178 1.096c-.11.293-.316.541-.585.703a2.36 2.36 0 0 1-2.071 0 1.4 1.4 0 0 1-.585-.703 3 3 0 0 1-.178-1.096c-.01-.374.051-.747.178-1.1.111-.292.317-.538.585-.698a2.03 2.03 0 0 1 1.018-.239zm9.098 4.584a.294.294 0 0 0 .29.3h3.445q.322.004.636-.07.293-.065.56-.204c.166-.087.318-.2.447-.336q.192-.206.29-.469c.074-.19.11-.392.107-.596a1.7 1.7 0 0 0-.071-.51 1.3 1.3 0 0 0-.239-.443 1.4 1.4 0 0 0-.417-.336l-.107-.06.096-.077q.173-.14.301-.321.112-.151.162-.331.046-.18.046-.367a1.6 1.6 0 0 0-.112-.611 1.25 1.25 0 0 0-.3-.443 1.6 1.6 0 0 0-.443-.306 2.4 2.4 0 0 0-.549-.173 3.3 3.3 0 0 0-.595-.056h-3.257a.3.3 0 0 0-.254.148.34.34 0 0 0-.036.152zm3.562-4.467a.63.63 0 0 1 .468.178.78.78 0 0 1 0 .994.63.63 0 0 1-.463.178h-2.229v-1.33zm.153 2.252a.8.8 0 0 1 .396.102.63.63 0 0 1 .245.285.9.9 0 0 1 .081.402 1 1 0 0 1-.076.402.63.63 0 0 1-.25.286.7.7 0 0 1-.396.102h-2.377V37.8zm3.902-.332c-.01.464.061.926.209 1.366.124.35.332.665.605.916.284.241.618.415.977.51a5.5 5.5 0 0 0 2.692 0c.361-.095.696-.269.982-.51.273-.251.481-.566.605-.916a4.6 4.6 0 0 0 0-2.736 2.3 2.3 0 0 0-.605-.911 2.45 2.45 0 0 0-.982-.51 5.5 5.5 0 0 0-2.692 0c-.36.092-.695.266-.977.51-.273.25-.481.562-.605.911-.14.45-.2.92-.178 1.39zm3.14-2.037c.354-.01.705.072 1.017.24.269.16.476.406.59.697.128.353.188.726.179 1.1.01.373-.051.745-.179 1.096a1.4 1.4 0 0 1-.59.703 2.35 2.35 0 0 1-2.066 0 1.38 1.38 0 0 1-.59-.703 3 3 0 0 1-.178-1.096c-.01-.374.051-.747.178-1.1a1.4 1.4 0 0 1 .59-.698 2.03 2.03 0 0 1 1.018-.239zm10.685 4.584v-5.093a.34.34 0 0 0-.036-.153.4.4 0 0 0-.091-.107.24.24 0 0 0-.128-.04h-1.999q-.425-.003-.845.065a2.6 2.6 0 0 0-.758.235 1.8 1.8 0 0 0-.595.463 1.9 1.9 0 0 0-.377.764l-1.018 3.938a.2.2 0 0 0 0 .122.2.2 0 0 0 .173.117h.815a.4.4 0 0 0 .167-.04.42.42 0 0 0 .224-.285l.921-3.505a1.3 1.3 0 0 1 .234-.474 1.1 1.1 0 0 1 .397-.306c.16-.073.334-.11.509-.107h1.064v4.412a.27.27 0 0 0 .04.157.27.27 0 0 0 .107.107q.066.04.143.041h.763a.3.3 0 0 0 .142-.04.26.26 0 0 0 .102-.108.27.27 0 0 0 .041-.152zm2.493 0a.4.4 0 0 0 .041.148.3.3 0 0 0 .254.148h.753a.3.3 0 0 0 .148-.04.27.27 0 0 0 .107-.108.3.3 0 0 0 .04-.148v-4.395h2.824a.3.3 0 0 0 .148-.041.27.27 0 0 0 .107-.107.4.4 0 0 0 .04-.153v-.387a.4.4 0 0 0-.04-.153.3.3 0 0 0-.102-.107.3.3 0 0 0-.153-.04h-3.872a.3.3 0 0 0-.147.04.27.27 0 0 0-.107.107.4.4 0 0 0-.041.153zm11.398-5.379h-4.62a.3.3 0 0 0-.255.143.4.4 0 0 0-.041.153v5.094a.5.5 0 0 0 .041.157.3.3 0 0 0 .107.113q.069.039.148.04h4.579a.3.3 0 0 0 .153-.04.4.4 0 0 0 .101-.112.26.26 0 0 0 .041-.148v-.392a.27.27 0 0 0-.041-.153.3.3 0 0 0-.101-.102.3.3 0 0 0-.143-.04h-3.562v-1.376h3.084a.29.29 0 0 0 .254-.153.27.27 0 0 0 .041-.148v-.387a.27.27 0 0 0-.041-.148.29.29 0 0 0-.254-.153h-3.084v-1.364h3.562a.3.3 0 0 0 .148-.041.26.26 0 0 0 .106-.107.27.27 0 0 0 .041-.153v-.387a.27.27 0 0 0-.041-.153.3.3 0 0 0-.249-.148z" clip-rule="evenodd"/></g><defs><linearGradient id="b" x1="34.136" x2="36.807" y1="8.736" y2="4.434" gradientUnits="userSpaceOnUse"><stop stop-color="#055497"/><stop offset="1" stop-color="#1BA5E3"/></linearGradient><linearGradient id="c" x1="33.414" x2="39.442" y1="20.406" y2="12.15" gradientUnits="userSpaceOnUse"><stop stop-color="#055497"/><stop offset="1" stop-color="#1BA5E3"/></linearGradient><linearGradient id="d" x1="45.834" x2="49.452" y1="21.628" y2="17.323" gradientUnits="userSpaceOnUse"><stop stop-color="#055497"/><stop offset="1" stop-color="#1BA5E3"/></linearGradient><linearGradient id="e" x1="22.307" x2="25.063" y1="17.115" y2="13.501" gradientUnits="userSpaceOnUse"><stop stop-color="#055497"/><stop offset="1" stop-color="#1BA5E3"/></linearGradient><linearGradient id="f" x1="13.838" x2="51.201" y1="35.764" y2="35.764" gradientUnits="userSpaceOnUse"><stop stop-color="#D6D6D6"/><stop offset="1" stop-color="#F9F9F9"/></linearGradient><linearGradient id="g" x1="21.099" x2="44.356" y1="37.01" y2="34.984" gradientUnits="userSpaceOnUse"><stop stop-color="#106BA2"/><stop offset="1" stop-color="#1BA5E3"/></linearGradient><linearGradient id="h" x1="22.965" x2="41.566" y1="39.756" y2="38.259" gradientUnits="userSpaceOnUse"><stop stop-color="#AD1A23"/><stop offset="1" stop-color="#DC2730"/></linearGradient><clipPath id="a"><path fill="#fff" d="M0 0h227v50H0z"/></clipPath></defs></svg>