<svg xmlns="http://www.w3.org/2000/svg" width="32" height="32" fill="none" viewBox="0 0 32 32"><path fill="#fff" d="M16 0c8.837 0 16 7.163 16 16s-7.163 16-16 16S0 24.837 0 16 7.163 0 16 0m.527 5.866c-5.244 0-9.511 4.268-9.513 9.514a9.5 9.5 0 0 0 1.27 4.756l-1.35 4.93 5.043-1.323a9.5 9.5 0 0 0 4.546 1.158h.004c5.246-.002 9.513-4.269 9.515-9.513a9.46 9.46 0 0 0-2.784-6.732 9.45 9.45 0 0 0-6.73-2.79"/><path fill="#102563" d="M16.53 7.474c2.113 0 4.099.824 5.592 2.319a7.86 7.86 0 0 1 2.313 5.594c-.002 4.36-3.549 7.908-7.907 7.908h-.004a7.9 7.9 0 0 1-4.025-1.103l-.289-.17-2.992.785.8-2.918-.19-.3A7.9 7.9 0 0 1 8.62 15.38c.001-4.36 3.549-7.907 7.91-7.907"/><path fill="#fff" d="M21.32 17.65c-.058-.099-.217-.159-.455-.277-.237-.12-1.406-.695-1.624-.774s-.377-.119-.535.119-.614.773-.753.932c-.138.159-.277.179-.515.06-.237-.12-1.003-.37-1.911-1.18-.707-.63-1.184-1.41-1.323-1.647s-.015-.367.104-.485c.107-.107.238-.278.357-.417s.158-.238.238-.396.04-.298-.02-.417-.535-1.289-.733-1.765c-.193-.463-.39-.4-.535-.408a9 9 0 0 0-.456-.008.87.87 0 0 0-.634.297c-.218.238-.832.813-.832 1.983s.852 2.3.971 2.46c.119.158 1.676 2.56 4.061 3.589.567.245 1.01.391 1.355.5a3.26 3.26 0 0 0 1.498.095c.456-.068 1.406-.575 1.604-1.13.198-.556.198-1.032.139-1.13"/></svg>