<svg xmlns="http://www.w3.org/2000/svg" width="32" height="32" fill="none" viewBox="0 0 32 32"><path fill="#fff" d="M16 0c8.837 0 16 7.163 16 16s-7.163 16-16 16S0 24.837 0 16 7.163 0 16 0m-.326 11.735c-.916-.009-1.691.004-2.13.214-.292.14-.517.453-.38.47.17.023.553.103.757.375.26.349.254 1.127.254 1.14 0 0 .151 2.172-.353 2.442-.345.185-.82-.192-1.839-1.92a16 16 0 0 1-.916-1.863s-.076-.183-.212-.281c-.164-.12-.394-.157-.394-.157l-2.438.016s-.366.01-.5.167c-.118.137-.013.419-.01.426 0 0 1.909 4.385 4.071 6.594 1.982 2.026 4.233 1.893 4.233 1.893h1.02s.308-.034.466-.2c.144-.153.14-.44.14-.44 0-.028-.013-1.346.616-1.542.625-.194 1.43 1.299 2.282 1.873.637.43 1.122.342 1.134.34l2.279-.031s1.192-.072.627-.992c-.047-.076-.33-.681-1.695-1.925-1.43-1.302-1.237-1.092.484-3.344 1.048-1.371 1.468-2.209 1.337-2.567-.125-.343-.897-.252-.897-.252l-2.565.016s-.19-.025-.331.057c-.138.081-.228.27-.228.27-.003.01-.408 1.066-.947 1.965-1.143 1.904-1.6 2.004-1.786 1.886-.435-.276-.326-1.107-.326-1.698 0-1.846.285-2.615-.556-2.815-.279-.066-.484-.11-1.197-.117"/></svg>