<svg style="display: none;" xmlns="http://www.w3.org/2000/svg" xmlns:xlink="http://www.w3.org/1999/xlink"><symbol viewBox="0 0 24 24" id="icon-action-1" xmlns="http://www.w3.org/2000/svg"><path d="M6 4v3.17c0 .53.21 1.04.59 1.42L10 12l-3.42 3.42c-.37.38-.58.89-.58 1.42V20c0 1.1.9 2 2 2h8c1.1 0 2-.9 2-2v-3.16c0-.53-.21-1.04-.58-1.41L14 12l3.41-3.4c.38-.38.59-.89.59-1.42V4c0-1.1-.9-2-2-2H8c-1.1 0-2 .9-2 2Z"/></symbol><symbol viewBox="0 0 24 24" id="icon-action-2" xmlns="http://www.w3.org/2000/svg"><path d="M20 4c1.1 0 2 .9 2 2v2.54c0 .69-.34 1.37-.94 1.7-.63.34-1.06 1-1.06 1.76s.43 1.42 1.06 1.76c.6.33.94 1.01.94 1.7V18c0 1.1-.9 2-2 2H4c-1.1 0-2-.9-2-2v-2.54c0-.69.34-1.37.94-1.7.63-.33 1.06-1 1.06-1.76s-.42-1.42-1.05-1.77c-.61-.32-.94-1-.94-1.69V5.99C2.01 4.89 2.9 4 4 4h16Zm-7.54 2.99c-.16-.42-.76-.42-.93 0l-1.08 2.75-2.96.17c-.46.03-.64.6-.29.89l2.3 1.88-.75 2.88c-.12.44.37.79.75.55L12 14.5l2.5 1.6c.38.25.87-.1.75-.55l-.76-2.86 2.3-1.88c.35-.29.16-.86-.29-.89l-2.96-.17-1.08-2.76Z"/></symbol><symbol viewBox="0 0 24 24" id="icon-action-3" xmlns="http://www.w3.org/2000/svg"><path d="M17 12.54a4.5 4.5 0 1 1 0 9.002 4.5 4.5 0 0 1 0-9.002Zm-7.5.5c.55 0 1 .45 1 1v6c0 .55-.45 1-1 1h-6c-.55 0-1-.45-1-1v-6c0-.55.45-1 1-1h6Zm1.15-10.1a.992.992 0 0 1 1.7 0l3.71 6.08a.998.998 0 0 1-.85 1.52H7.78c-.78 0-1.26-.86-.85-1.52l3.72-6.08Z"/></symbol><symbol viewBox="0 0 24 24" id="icon-arrow-down" xmlns="http://www.w3.org/2000/svg"><path d="m9 11.5 3 2.5 3-2.5" stroke-linecap="round"/></symbol><symbol viewBox="0 0 24 24" id="icon-arrow-down-2" xmlns="http://www.w3.org/2000/svg"><path d="m19 10-7 6-7-6" stroke-width="2" stroke-linecap="round"/></symbol><symbol viewBox="0 0 24 24" id="icon-arrow-left" xmlns="http://www.w3.org/2000/svg"><path d="m16 3-9 9 9 9" stroke-width="3" stroke-linecap="round"/></symbol><symbol viewBox="0 0 24 24" id="icon-arrow-right" xmlns="http://www.w3.org/2000/svg"><path d="m8 21 9-9-9-9" stroke-width="3" stroke-linecap="round"/></symbol><symbol viewBox="0 0 24 24" id="icon-arrow-top" xmlns="http://www.w3.org/2000/svg"><path d="m5 15 7-6 7 6" stroke-width="2" stroke-linecap="round"/></symbol><symbol viewBox="0 0 24 24" id="icon-basket" xmlns="http://www.w3.org/2000/svg"><path d="M8.25 21a1.5 1.5 0 1 0 0-3 1.5 1.5 0 0 0 0 3ZM18.75 21a1.5 1.5 0 1 0 0-3 1.5 1.5 0 0 0 0 3ZM7.865 14.25h12.25l1.8-9H6.276L5.88 3H1.5v1.5h3.12l2.25 12.75h13.38v-1.5H8.13l-.265-1.5Z"/></symbol><symbol viewBox="0 0 32 32" id="icon-check" xmlns="http://www.w3.org/2000/svg"><path d="M31.256 5.23a2.538 2.538 0 0 0-3.589 0L11.513 21.385l-7.18-7.18a2.538 2.538 0 1 0-3.59 3.59l8.975 8.974a2.53 2.53 0 0 0 1.794.744c.65 0 1.3-.248 1.796-.744L31.256 8.82a2.538 2.538 0 0 0 0-3.589Z"/></symbol><symbol viewBox="0 0 24 24" id="icon-close" xmlns="http://www.w3.org/2000/svg"><path d="m5 5 7.5 7.5M20 20l-7.5-7.5m0 0L20 5m-7.5 7.5L5 20" stroke-width="3" stroke-linecap="round" stroke-linejoin="round"/></symbol><symbol viewBox="0 0 24 24" id="icon-filter-1" xmlns="http://www.w3.org/2000/svg"><path d="M3.5 20.09a.91.91 0 0 0 .91.91h15.18a.911.911 0 0 0 .91-.91V9.463h-17V20.09Zm11.77-9.26h.98v7.59h-1.214V12.51l-1.343.99-.721-.978 2.298-1.693Zm-4.56 4.68c-.324-.332-.863-.482-1.143-.482H8.96v-1.214h.607c.184 0 .66-.099.96-.404a.836.836 0 0 0 .249-.61c0-.882-1.087-.907-1.21-.907-.658 0-.903.402-.914.42l-.308.522-1.046-.617.309-.523c.29-.493.957-1.016 1.959-1.016.624 0 1.205.18 1.636.509.508.387.788.96.788 1.612a2.05 2.05 0 0 1-.733 1.586c.114.082.22.174.32.274.4.41.612.977.612 1.642 0 .685-.29 1.29-.813 1.704-.462.365-1.091.565-1.772.565-1.058 0-1.84-.689-2.188-1.278l-.309-.523 1.046-.618.31.522c.04.07.423.683 1.142.683.632 0 1.37-.276 1.37-1.055 0-.238-.046-.568-.265-.793ZM19.59 5.214h-2.123V4h-1.821v1.214H8.354V4H6.533v1.214H4.41a.903.903 0 0 0-.911.902V8.25h17V6.116a.903.903 0 0 0-.91-.902Z"/></symbol><symbol viewBox="0 0 24 24" id="icon-filter-2" xmlns="http://www.w3.org/2000/svg"><path d="M11.666 22s7.5-7.107 7.5-12.5a7.5 7.5 0 0 0-15 0c0 5.393 7.5 12.5 7.5 12.5Zm0-8.75a3.75 3.75 0 1 1 0-7.5 3.75 3.75 0 0 1 0 7.5Z"/></symbol><symbol viewBox="0 0 24 24" id="icon-filter-3" xmlns="http://www.w3.org/2000/svg"><path d="M3.833 20.09a.91.91 0 0 0 .91.91h15.18a.911.911 0 0 0 .91-.91V9.463h-17V20.09Zm12.143-9.26a.152.152 0 0 1 .152-.151h1.517a.152.152 0 0 1 .152.151v1.518a.151.151 0 0 1-.152.152h-1.517a.152.152 0 0 1-.152-.152V10.83Zm0 3.036a.152.152 0 0 1 .152-.152h1.517a.152.152 0 0 1 .152.152v1.518a.152.152 0 0 1-.152.152h-1.517a.152.152 0 0 1-.152-.152v-1.518ZM12.94 10.83a.152.152 0 0 1 .152-.151h1.518a.152.152 0 0 1 .152.151v1.518a.151.151 0 0 1-.152.152h-1.518a.152.152 0 0 1-.152-.152V10.83Zm0 3.036a.152.152 0 0 1 .152-.152h1.518a.152.152 0 0 1 .152.152v1.518a.152.152 0 0 1-.152.152h-1.518a.152.152 0 0 1-.152-.152v-1.518Zm0 3.036a.151.151 0 0 1 .152-.152h1.518a.151.151 0 0 1 .152.152v1.518a.152.152 0 0 1-.152.151h-1.518a.152.152 0 0 1-.152-.151v-1.518Zm-3.036-3.036a.152.152 0 0 1 .152-.152h1.518a.152.152 0 0 1 .152.152v1.518a.152.152 0 0 1-.152.152h-1.518a.152.152 0 0 1-.152-.152v-1.518Zm0 3.036a.152.152 0 0 1 .152-.152h1.518a.152.152 0 0 1 .152.152v1.518a.152.152 0 0 1-.152.151h-1.518a.152.152 0 0 1-.152-.151v-1.518ZM6.87 13.866a.152.152 0 0 1 .152-.152h1.517a.152.152 0 0 1 .152.152v1.518a.152.152 0 0 1-.152.152H7.021a.152.152 0 0 1-.152-.152v-1.518Zm0 3.036a.152.152 0 0 1 .152-.152h1.517a.152.152 0 0 1 .152.152v1.518a.152.152 0 0 1-.152.151H7.021a.152.152 0 0 1-.152-.151v-1.518ZM19.922 5.214H17.8V4H15.98v1.214H8.687V4H6.866v1.214H4.744a.903.903 0 0 0-.911.902V8.25h17V6.116a.903.903 0 0 0-.91-.902Z"/></symbol><symbol viewBox="0 0 24 24" id="icon-filter-4" xmlns="http://www.w3.org/2000/svg"><path d="M17.616 9.652a12.053 12.053 0 0 0-2.169-3.616C13.837 4.19 11.35 3 9.4 3c.772 2.813-.583 4.706-1.82 6.58-1.024 1.55-2.08 3.154-2.08 4.991C5.5 18.116 8.416 21 12 21s6.5-2.884 6.5-6.429c0-1.74-.297-3.394-.884-4.919Zm-4.303 8.885c-.42.442-.945.534-1.313.534s-.894-.092-1.313-.534c-.42-.442-.637-1.143-.637-2.037 0-1.01.358-1.78.704-2.522.264-.566.596-1.094.614-1.788.46.236.962.68 1.403 1.257.739.964 1.179 2.106 1.179 3.053 0 .894-.22 1.598-.637 2.037Z"/></symbol><symbol viewBox="0 0 24 24" id="icon-filter-5" xmlns="http://www.w3.org/2000/svg"><path d="M20.91 11.956c-.086-.241-.29-.384-.505-.48l-1.334-.528v-5.21a.806.806 0 0 0-.804-.805h-3.053V3.644A.645.645 0 0 0 14.57 3H9.428a.642.642 0 0 0-.643.644v1.289H5.732a.803.803 0 0 0-.804.805v5.213l-1.329.526c-.214.097-.425.242-.51.483-.087.242-.128.476-.04.765l2.05 6.048h.043c1.37 0 2.571-.701 3.427-1.765.857 1.064 2.057 1.696 3.427 1.696 1.371 0 2.572-.634 3.428-1.698.857 1.064 2.056 1.767 3.427 1.767h.043l2.059-6.047c.087-.242.043-.528-.043-.77ZM12 8.154l-5.786 2.289v-4.06a.161.161 0 0 1 .16-.162h11.25a.16.16 0 0 1 .161.161v4.058L12 8.154Z"/><path d="M15.584 18.422c-2.099 1.46-5.076 1.46-7.175 0 0 0-1.834 2.537-3.803 2.537l.536.04c1.2 0 2.356-.472 3.427-1.03a7.433 7.433 0 0 0 6.855 0C16.494 20.528 17.65 21 18.85 21l.536-.04c-1.915 0-3.803-2.538-3.803-2.538Z"/></symbol><symbol viewBox="0 0 24 24" id="icon-phone" xmlns="http://www.w3.org/2000/svg"><path d="M5.514 2.5c-.533.012-.763.177-1.082.54L2.541 5.204C2.145 5.655 2 6.36 2 7.095c0 2.455 1.847 6.44 5.405 10 3.56 3.558 7.545 5.405 10 5.405.735 0 1.44-.145 1.892-.54l2.162-1.893c.364-.318.529-.548.54-1.08.01-.393-.223-.765-.54-1.082l-2.973-2.973c-.333-.333-.62-.54-1.08-.54-.48 0-.787.245-1.082.54l-1.08 1.082c-.496.477-.866.513-1.352.27l-5.676-5.676c-.243-.486-.207-.856.27-1.351l1.082-1.081c.295-.295.54-.602.54-1.081 0-.461-.207-.748-.54-1.081L6.595 3.04c-.317-.317-.69-.55-1.081-.54Z"/></symbol><symbol viewBox="0 0 18 10" id="icon-social-1" xmlns="http://www.w3.org/2000/svg"><path d="M9.37 9.517s.308-.033.466-.2c.144-.152.14-.44.14-.44s-.02-1.342.615-1.54c.627-.196 1.43 1.298 2.284 1.872.644.435 1.133.34 1.133.34l2.28-.032s1.192-.072.627-.992c-.047-.075-.33-.68-1.695-1.925-1.43-1.302-1.238-1.091.483-3.343 1.049-1.372 1.468-2.21 1.337-2.567-.125-.343-.896-.252-.896-.252l-2.566.016s-.19-.026-.331.057c-.138.081-.227.27-.227.27s-.406 1.061-.948 1.964C10.93 4.65 10.473 4.75 10.286 4.632c-.435-.276-.326-1.107-.326-1.698 0-1.846.285-2.616-.555-2.815C9.125.053 8.92.01 8.207.002c-.916-.009-1.69.003-2.13.214-.292.14-.517.453-.38.471.17.022.554.102.758.374.263.351.253 1.14.253 1.14s.151 2.172-.353 2.442c-.345.185-.82-.193-1.839-1.92-.521-.886-.915-1.864-.915-1.864S3.525.676 3.389.58c-.165-.12-.394-.157-.394-.157L.556.438s-.366.01-.5.166c-.12.139-.01.426-.01.426s1.91 4.385 4.071 6.595C6.1 9.65 8.35 9.517 8.35 9.517h1.02Z"/></symbol><symbol viewBox="0 0 20 20" id="icon-social-2" xmlns="http://www.w3.org/2000/svg"><path d="M19.2 17.777V9.121h-.012A9.597 9.597 0 0 0 7.785.168C3.98.868.957 3.821.198 7.615c-1.232 6.166 3.45 11.585 9.4 11.585h8.18c.782 0 1.422-.64 1.422-1.423Z"/><path d="M14.042 14.354s.358.214.358-.28V9.517A4.8 4.8 0 0 0 9.6 4.8a4.798 4.798 0 0 0-4.8 4.797 4.799 4.799 0 0 0 7.974 3.598l1.268 1.16Z"/></symbol><symbol viewBox="0 0 24 24" id="icon-social-3" xmlns="http://www.w3.org/2000/svg"><path d="M12.594 21.035c5.246-.002 9.512-4.27 9.514-9.514a9.456 9.456 0 0 0-2.784-6.73A9.452 9.452 0 0 0 12.594 2C7.35 2 3.082 6.268 3.08 11.514c-.001 1.676.437 3.313 1.27 4.756L3 21.2l5.044-1.323a9.505 9.505 0 0 0 4.546 1.158h.004Z"/><path d="M17.387 13.783c-.06-.099-.218-.158-.455-.277-.238-.12-1.407-.694-1.625-.774-.218-.079-.376-.119-.535.12-.158.237-.614.773-.752.931-.139.159-.278.179-.515.06-.238-.12-1.004-.37-1.912-1.18-.707-.63-1.184-1.409-1.323-1.647-.138-.238-.014-.366.105-.485.107-.107.237-.278.356-.417.12-.138.159-.237.238-.396.08-.159.04-.298-.02-.417s-.535-1.289-.733-1.765c-.193-.463-.389-.4-.535-.408a9.45 9.45 0 0 0-.455-.008.873.873 0 0 0-.634.297c-.218.238-.832.813-.832 1.984 0 1.17.852 2.3.97 2.459.12.158 1.677 2.56 4.061 3.59.568.244 1.01.39 1.356.5.57.181 1.088.155 1.497.094.457-.068 1.406-.575 1.605-1.13.198-.556.198-1.031.138-1.13Z"/></symbol><symbol viewBox="0 0 24 24" id="icon-user" xmlns="http://www.w3.org/2000/svg"><path d="M12.156 11.938a5.469 5.469 0 1 0 0-10.938 5.469 5.469 0 0 0 0 10.938Zm0 1.562C8.766 13.5 2 15.594 2 19.75c0 1.726 1.4 3.125 3.125 3.125h14.063c1.725 0 3.125-1.4 3.125-3.125 0-4.156-6.767-6.25-10.157-6.25Z"/></symbol></svg>